# xmcd
#
# Track frame offsets:
#       150
#       12300
#       22537
#       35442
#       45075
#       55697
#       69007
#       77710
#       89325
#       102192
#       114687
#       125650
#       139800
#       149897
#       164792
#       177325
#       187167
#
# Disc length: 2656 seconds
#
# Revision: 1
# Processed by: cddbd v1.5PL3 Copyright (c) Steve Scherf et al.
# Submitted via: WhereIsIt 3.56
#
DISCID=e60a5e11
DTITLE=Spears, Billie Jo - Come On Home (The Best Of)
DYEAR=1994
DGENRE=Country
TTITLE0=What Have They Done To My Song Ma
TTITLE1=It Makes No Difference Now
TTITLE2=He's On The Run Again
TTITLE3=Danny (Ruby Baby)
TTITLE4=I'm So Lonesome I Could Cry
TTITLE5=Fever
TTITLE6=You're My Man
TTITLE7=Ease The Want In Me
TTITLE8=Dallas
TTITLE9=Sunshine
TTITLE10=Come On Home
TTITLE11=Which Way You Goin' Billy
TTITLE12=I Stayed Long Enough
TTITLE13=I'll Never Be Free
TTITLE14=Stepchild
TTITLE15=Souvenirs and California Memories
TTITLE16=It Could'A Been Me
EXTD=ed.: Castle Communications PLC, UK
EXTT0=
EXTT1=
EXTT2=
EXTT3=
EXTT4=
EXTT5=
EXTT6=
EXTT7=
EXTT8=
EXTT9=
EXTT10=
EXTT11=
EXTT12=
EXTT13=
EXTT14=
EXTT15=
EXTT16=
PLAYORDER=
